<svg viewBox="0 0 4932.31 4921.99" xmlns="http://www.w3.org/2000/svg"><g transform="translate(-33.85 -39.01)"><g fill="#0c0c0c" opacity=".13"><path d="m2487.87 609.27c37.15 0 68.26 283.89 76.29 664.75a1248.12 1248.12 0 0 1 130.84 16.41c36.69-127.18 58.64-288.84 58.64-464.81 0-409.67-119-741.77-265.8-741.77s-265.8 332.1-265.8 741.77c0 173.71 21.4 333.47 57.24 459.88a1257.27 1257.27 0 0 1 132.32-13.35c8.12-379.92 39.18-662.88 76.27-662.88z"/><path d="m1529.23 857.86c32.16-18.57 201 211.63 398.31 537.34a1243.46 1243.46 0 0 1 121.64-51.13c-31.82-128.46-93.63-279.39-181.59-431.75-204.83-354.78-473.94-582.89-601.07-509.49s-64.14 420.51 140.69 775.29c86.89 150.49 185.33 278.18 279.61 369.74a1256.07 1256.07 0 0 1 107.76-77.92c-182.92-333.01-297.47-593.54-265.35-612.08z"/><path d="m823.31 1552.46c18.57-32.17 280 82.82 613.76 266.28a1257.27 1257.27 0 0 1 79.85-105c-91.81-95.4-220.88-195.29-373.35-283.32-354.78-204.84-701.89-267.83-775.29-140.7s154.72 396.28 509.49 601.11c150.38 86.82 299.38 148.15 426.75 180.33a1245 1245 0 0 1 54.53-121.35c-324.86-196.92-554.28-365.23-535.74-397.35z"/><path d="m559.27 2507c0-37.15 283.88-68.25 664.74-76.29a1253.8 1253.8 0 0 1 16.41-130.87c-127.17-36.69-288.83-58.64-464.8-58.64-409.67 0-741.77 119-741.77 265.8s332.1 265.8 741.77 265.8c173.71 0 333.47-21.4 459.88-57.24a1257.27 1257.27 0 0 1 -13.35-132.32c-379.92-8.12-662.88-39.18-662.88-76.24z"/><path d="m807.85 3465.61c-18.57-32.16 211.63-201 537.34-398.31a1241 1241 0 0 1 -51.12-121.64c-128.46 31.82-279.4 93.63-431.75 181.59-354.78 204.83-582.89 473.94-509.49 601.07s420.51 64.14 775.29-140.69c150.49-86.88 278.18-185.33 369.74-279.6a1257.79 1257.79 0 0 1 -77.92-107.77c-333.01 182.92-593.54 297.47-612.09 265.35z"/><path d="m1502.46 4171.53c-32.17-18.57 82.82-279.95 266.28-613.76a1257.27 1257.27 0 0 1 -105-79.85c-95.4 91.81-195.3 220.88-283.33 373.35-204.83 354.78-267.82 701.89-140.69 775.29s396.24-154.71 601.08-509.49c86.82-150.38 148.15-299.38 180.33-426.74a1247.44 1247.44 0 0 1 -121.35-54.54c-196.89 324.86-365.21 554.28-397.32 535.74z"/><path d="m2457 4435.57c-37.14 0-68.25-283.88-76.28-664.74a1253.46 1253.46 0 0 1 -130.87-16.41c-36.69 127.17-58.65 288.83-58.65 464.8 0 409.67 119 741.77 265.8 741.77s265.81-332.1 265.81-741.77c0-173.71-21.4-333.47-57.24-459.88a1257.27 1257.27 0 0 1 -132.32 13.35c-8.13 379.92-39.2 662.88-76.25 662.88z"/><path d="m3415.61 4187c-32.16 18.57-201-211.63-398.31-537.34a1242 1242 0 0 1 -121.64 51.12c31.82 128.46 93.62 279.4 181.59 431.75 204.83 354.79 473.94 582.89 601.07 509.49s64.14-420.51-140.69-775.29c-86.89-150.5-185.34-278.19-279.63-369.73a1253.91 1253.91 0 0 1 -107.76 77.92c182.93 333 297.49 593.52 265.37 612.08z"/><path d="m4121.53 3492.38c-18.57 32.17-279.95-82.82-613.77-266.27a1256.49 1256.49 0 0 1 -79.84 105c91.8 95.4 220.88 195.3 373.34 283.33 354.79 204.83 701.9 267.82 775.3 140.69s-154.71-396.24-509.5-601.07c-150.38-86.83-299.37-148.16-426.74-180.34a1243.9 1243.9 0 0 1 -54.54 121.28c324.87 197 554.29 365.27 535.75 397.38z"/><path d="m4385.57 2537.88c0 37.14-283.89 68.25-664.74 76.28a1250.79 1250.79 0 0 1 -16.42 130.84c127.18 36.69 288.84 58.65 464.81 58.65 409.67 0 741.77-119 741.77-265.8s-332.1-265.81-741.77-265.81c-173.71 0-333.47 21.4-459.88 57.24a1257.27 1257.27 0 0 1 13.35 132.32c379.92 8.13 662.88 39.19 662.88 76.28z"/><path d="m4137 1579.23c18.57 32.16-211.63 201-537.34 398.31a1244.49 1244.49 0 0 1 51.13 121.64c128.46-31.82 279.39-93.62 431.75-181.58 354.78-204.84 582.89-473.95 509.49-601.08s-420.51-64.14-775.29 140.69c-150.49 86.89-278.18 185.34-369.74 279.61a1256.07 1256.07 0 0 1 77.92 107.76c332.99-182.91 593.52-297.46 612.08-265.35z"/><path d="m3442.38 873.31c32.17 18.57-82.82 280-266.28 613.77a1255 1255 0 0 1 105 79.84c95.4-91.8 195.3-220.87 283.32-373.34 204.84-354.79 267.83-701.9 140.7-775.3s-396.27 154.72-601.12 509.5c-86.82 150.38-148.15 299.37-180.33 426.74a1242.66 1242.66 0 0 1 121.33 54.54c197-324.87 365.27-554.29 397.38-535.75z"/><path d="m3554.94 3076.43q15.55 9.33 30.84 18.61a1243.9 1243.9 0 0 0 54.54-121.36q7.57-19.57 14.5-39.47-49.72-12.2-101.44-25.53c25.69 35.39 25.97 99.21 1.56 167.75z"/><path d="m2410.94 1307.93q.32-18 .69-35.78a1257.27 1257.27 0 0 0 -132.32 13.35q-20.83 3.23-41.44 7.14 14.28 49.11 28.58 100.51c17.8-39.94 72.93-72.09 144.49-85.22z"/><path d="m2275 2241.86 1.93-1.34c-95.24-123.37-237.71-342.8-385.86-599.41-33.8-58.54-66.07-115.85-96.45-171.17a1256.07 1256.07 0 0 0 -107.76 77.92q-16.36 13.22-32.27 27c45.11 43.25 91.63 88.79 138.92 136.08 211.25 211.23 387.49 407.15 481.49 530.92z"/><path d="m2814.1 2491.7c.07.78.15 1.56.21 2.34 154.46-20.79 415.74-34.46 712-34.46 67.55 0 133.28.71 196.34 2.05a1257.27 1257.27 0 0 0 -13.35-132.32q-3.23-20.83-7.14-41.44c-60.07 17.46-122.83 35-187.5 52.33-288.59 77.34-546.4 132.03-700.56 151.5z"/><path d="m1647.73 3070.86c17.1 48.49 21.82 94.54 13.91 129.76 211-210.95 406.6-386.91 530.22-480.74-.46-.64-.9-1.28-1.34-1.93-114.2 88.16-310.69 216.78-542.79 352.91z"/><path d="m2860.05 2238.45c-.88 4.49-1.86 9-2.91 13.53 126.37-88 300.64-197.82 496.59-311 58.54-33.8 115.85-66.06 171.17-96.45a1256.07 1256.07 0 0 0 -77.9-107.71q-13.21-16.36-26.95-32.27c-43.25 45.11-88.79 91.63-136.08 138.92-157.76 157.74-306.97 295.96-423.92 394.98z"/><path d="m2639.79 2153.56a345.15 345.15 0 0 1 31.49-59.64c65.42-139.15 161.07-320.61 273.68-515.65 33.82-58.58 67.34-115.21 100.07-169.21a1242.66 1242.66 0 0 0 -121.35-54.54q-19.57-7.57-39.47-14.5c-14.92 60.78-31.12 123.94-48.46 188.65-67.82 253.13-138.88 477.02-195.96 624.89z"/><path d="m1451.38 3182.91q-15.83 8.78-31.44 17.35a1257.79 1257.79 0 0 0 77.92 107.74q13.2 16.35 27 32.26 35.32-36.86 72.61-74.85c-43.54 4.59-98.95-27.09-146.09-82.5z"/><path d="m1933.11 2294.29q10.85-6.93 23.05-13.22c-124.07-61.63-271.62-141-427.9-231.19-58.57-33.82-115.21-67.34-169.21-100.07a1245 1245 0 0 0 -54.53 121.35q-7.57 19.59-14.51 39.47c60.79 14.92 124 31.12 188.65 48.46 169.21 45.34 325.34 92.12 454.45 135.2z"/><path d="m1567.92 2936.62c236.74-134.58 448.74-241.53 582.32-296-.27-.74-.52-1.48-.79-2.22-143.83 60.06-392.62 140.88-678.79 217.55q-12.44 3.34-24.8 6.61c38.04 3.44 82.5 30.44 122.06 74.06z"/><path d="m2328.16 2833.75-2.13-1c-59.23 144.17-178 377.24-326.15 633.82-33.82 58.57-67.34 115.21-100.07 169.21a1247.44 1247.44 0 0 0 121.35 54.54q19.58 7.56 39.47 14.5c14.92-60.79 31.12-123.95 48.45-188.65 77.33-288.59 158.86-539.17 219.08-682.42z"/><path d="m2130.73 2553.15c-.07-.79-.14-1.56-.2-2.35-154.47 20.8-415.74 34.47-712 34.47-67.56 0-133.28-.71-196.34-2.06a1257.27 1257.27 0 0 0 13.35 132.32q3.23 20.83 7.13 41.44c60.07-17.46 122.83-35 187.5-52.33 288.6-77.34 546.41-132.03 700.56-151.49z"/><path d="m2521.45 2982.85q-4.22-3-8.42-6.24c13.76 154.83 22.23 366.43 22.23 599.74 0 67.56-.71 133.28-2.05 196.34a1257.27 1257.27 0 0 0 132.32-13.35q20.83-3.23 41.44-7.13c-17.46-60.07-35-122.83-52.33-187.5-59.97-223.81-106.32-429.07-133.19-581.86z"/><path d="m2623.89 2199.85q4.49-16.14 10.06-31.3-8.89 22.6-17.27 42.54l2.13 1q2.46-6.02 5.08-12.24z"/><path d="m2719.59 2865.86a272.4 272.4 0 0 1 14.58 28.86c89.41 127.25 202.76 306.56 319.64 509 33.8 58.54 66.07 115.86 96.45 171.17a1253.91 1253.91 0 0 0 107.74-77.89q16.36-13.2 32.27-26.95c-45.11-43.25-91.63-88.78-138.92-136.07-178.35-178.39-331.77-345.82-431.76-468.12z"/><path d="m3283.38 3098.64c-235-137.76-433.64-267.91-547.63-356.34l-1.52 1.8c123.92 94.51 318.34 269.6 527.87 479.13q9.11 9.11 18.13 18.18c-16.05-34.67-14.87-86.69 3.15-142.77z"/><path d="m3359.73 2962.4c33.44-39 71-66.16 105.41-76.92-288.16-77.25-538.32-158.66-681.39-218.8-.33.71-.66 1.42-1 2.13 133.45 54.83 343.06 160.68 576.98 293.59z"/><path d="m2566 1532c-1.82 272.35-15.2 509.45-34.78 652.39.77.13 1.55.25 2.32.39 19.9-154.59 74.31-410.47 151-696.64q3.35-12.45 6.68-24.79c-22.04 31.23-67.69 56.21-125.22 68.65z"/><path d="m2409.8 1534c-50.54-9.44-92.78-28.37-119.33-52.83 77.2 288.22 131.78 545.6 151.22 699.57.79-.07 1.56-.15 2.35-.21-19.25-142.97-32.39-377.46-34.24-646.53z"/><path d="m2564.84 1309.9c77.91 16.57 134.24 56.07 140.14 103q16.17-58.41 32.38-114.11-21-4.53-42.33-8.36a1248.12 1248.12 0 0 0 -130.87-16.43q.38 17.81.68 35.9z"/><path d="m2026.64 1562.81c149.38 258.74 268.91 493.56 327.63 637.43l2.22-.78c-60.06-143.83-140.87-392.63-217.55-678.79-17.51-65.36-33.86-129.13-48.91-190.48q-20.58 6.6-40.85 13.88a1243.46 1243.46 0 0 0 -121.64 51.13c32.46 53.52 65.62 109.62 99.1 167.61z"/><path d="m1606.56 1914.26c206.92 119.47 389.67 235.24 517.37 325.53q5.18-.12 10.27-.09c-120.63-100-281-247.67-451.46-418.08-47.77-47.77-93.74-94.75-137.38-140.28q-14.49 16-28.44 32.43a1257.27 1257.27 0 0 0 -79.85 105c54.8 30.08 111.55 62.04 169.49 95.49z"/><path d="m1418.49 2428.67c171.78 0 331.77 4.6 466 12.51a76 76 0 0 1 -17.68-27.43c-126.32-26.57-273-61.69-428.7-103.4-65.33-17.51-128.71-35.23-189.34-52.87q-4.55 21-8.37 42.33a1253.8 1253.8 0 0 0 -16.4 130.87c62.5-1.31 127.6-2.01 194.49-2.01z"/><path d="m1376.13 3048.65c-24.6-75.76-18.56-144.3 19.13-172.87q-58.71 15.21-115.08 29 6.6 20.58 13.89 40.85a1241 1241 0 0 0 51.12 121.64q15.33-9.27 30.94-18.62z"/><path d="m1864.26 3388.28c149.41-258.79 293-479.76 388.28-602.53l-1.8-1.52c-94.51 123.93-269.6 318.35-479.13 527.87-47.76 47.77-94.74 93.74-140.28 137.38q16 14.49 32.44 28.44a1257.27 1257.27 0 0 0 105 79.85c30.08-54.77 62.04-111.55 95.49-169.49z"/><path d="m2378.67 3576.35c0-295.55 13.6-556.23 34.3-710.84l-1.91-3.34c-20.11 154.8-74.38 409.65-150.72 694.54-17.5 65.33-35.22 128.71-52.86 189.34q21 4.54 42.33 8.37a1253.46 1253.46 0 0 0 130.87 16.41c-1.32-62.49-2.01-127.59-2.01-194.48z"/><path d="m2918.19 3482c-94-162.84-176.21-316.21-238.86-443.4a129.46 129.46 0 0 1 -19 .38c45.88 134.71 96.56 302.31 145.56 485.17 17.51 65.35 33.86 129.13 48.9 190.48q20.6-6.6 40.86-13.89a1242 1242 0 0 0 121.64-51.12c-32.42-53.49-65.61-109.62-99.1-167.62z"/><path d="m3476.29 3208.72c-53.31 59.19-115.68 88.22-159.28 69.87q42.42 43.11 82.47 84.92 14.49-16 28.44-32.44a1256.49 1256.49 0 0 0 79.84-105q-15.63-8.55-31.47-17.35z"/><path d="m3720.83 2614.16c-62.49 1.32-127.59 2-194.48 2-298.79 0-561.95-13.9-715.9-35-.13.77-.25 1.54-.39 2.31 154.59 19.9 410.47 74.32 696.64 151 65.34 17.5 128.72 35.22 189.35 52.86q4.53-21 8.36-42.33a1250.79 1250.79 0 0 0 16.42-130.84z"/><path d="m3432 2076.65c-258.7 149.35-493.53 268.91-637.4 327.62.27.74.52 1.48.78 2.22 143.83-60.06 392.63-140.87 678.79-217.55 65.36-17.51 129.13-33.86 190.48-48.9q-6.58-20.6-13.88-40.86a1244.49 1244.49 0 0 0 -51.13-121.64c-53.52 32.46-109.64 65.62-167.64 99.11z"/><path d="m3080.58 1656.57c-85.27 147.69-168.66 283.07-242.25 394.9a128.17 128.17 0 0 1 12.14 22c89.7-101 200.35-218.29 322.75-340.7 47.78-47.77 94.78-93.77 140.29-137.4q-16-14.5-32.44-28.45a1255 1255 0 0 0 -105-79.84c-30.07 54.79-62.07 111.54-95.49 169.49z"/><path d="m2457.84 1539.85a391.39 391.39 0 0 1 -48-5.85c1.85 269.07 15 503.56 34.24 646.53l1.08-.1c-2.64-67.91-4.12-144.55-4.12-225.67-.04-171.91 6.62-323.76 16.8-414.91z"/><path d="m2564.84 1309.9q-.32-18.08-.68-35.88c-8-380.86-39.14-664.75-76.29-664.75s-68.15 283-76.24 662.88q-.37 17.76-.69 35.78a400.33 400.33 0 0 1 72-6.39 395.61 395.61 0 0 1 81.9 8.36z"/><path d="m2566 1532a386.84 386.84 0 0 1 -63.48 8.14c10.16 91.19 16.81 242.89 16.81 414.62 0 81.74-1.5 158.94-4.18 227.23q8.1 1 16.07 2.4c19.54-142.94 32.92-380.04 34.78-652.39z"/><path d="m2356.49 2199.46a340.75 340.75 0 0 1 85.2-18.72c-19.44-154-74-411.35-151.22-699.57-19.16-17.66-30.15-38.19-30.15-60.1a68.07 68.07 0 0 1 6.13-27.92q-14.28-51.33-28.58-100.51c-106.31-365.72-209.81-631.79-245.68-622.18s7.38 290.81 97.84 659.73c15 61.35 31.4 125.12 48.91 190.48 76.68 286.16 157.49 534.96 217.55 678.79z"/><path d="m2026.64 1562.81c-33.48-58-66.68-114.09-99.1-167.61-197.33-325.71-366.15-555.91-398.31-537.34s82.43 279.07 265.35 612.08c30.38 55.32 62.65 112.63 96.45 171.17 148.15 256.61 290.62 476 385.86 599.41a341.87 341.87 0 0 1 77.38-40.28c-58.72-143.87-178.27-378.69-327.63-637.43z"/><path d="m2134.2 2239.7c44.48.19 84.15 8.48 113.87 23.17q12.9-11.14 26.89-21c-93.95-123.77-270.2-319.69-481.49-531-47.29-47.29-93.81-92.83-138.92-136.08-275-263.63-497.74-442.38-524-416.12s151.9 248.28 414.82 522.65c43.64 45.53 89.61 92.51 137.38 140.28 170.4 170.4 330.82 318.06 451.45 418.1z"/><path d="m2123.93 2239.79c-127.7-90.29-310.45-206.06-517.37-325.53-57.94-33.45-114.69-65.41-169.49-95.52-333.81-183.46-595.19-298.45-613.76-266.28s210.88 200.43 535.74 397.35c54 32.73 110.64 66.25 169.21 100.07 156.28 90.23 303.83 169.56 427.9 231.19 30.23-15.57 66.27-27.84 105.76-34.94a406 406 0 0 1 62.01-6.34z"/><path d="m1866.83 2413.75a66 66 0 0 1 -2.85-10.6c-6.84-38.08 20.76-78 69.13-108.86-129.11-43.08-285.24-89.86-454.45-135.2-64.7-17.34-127.86-33.54-188.65-48.46-369.82-90.77-651.94-134.17-661.55-98.29s255.57 139 620.33 245.14c60.63 17.64 124 35.36 189.34 52.87 155.68 41.71 302.38 76.83 428.7 103.4z"/><path d="m2132.59 2475.3q-13.86 3.51-28.39 6.13c-94.55 17-180.9-.7-219.69-40.25-134.25-7.91-294.24-12.51-466-12.51-66.89 0-132 .7-194.48 2-380.86 8-664.74 39.14-664.74 76.29s283 68.15 662.88 76.24c63.06 1.35 128.78 2.06 196.34 2.06 296.3 0 557.57-13.67 712-34.47-.77-9.36-1.18-18.82-1.18-28.38a345.48 345.48 0 0 1 3.26-47.11z"/><path d="m1402.08 2871.23c12.89-7.44 27.76-10.16 43.78-8.72q12.36-3.27 24.8-6.61c286.17-76.67 535-157.49 678.79-217.55a341.63 341.63 0 0 1 -18.72-85.2c-154.15 19.46-412 74.15-700.6 151.49-64.67 17.33-127.43 34.87-187.5 52.33-365.71 106.32-631.79 209.81-622.17 245.69s290.8-7.39 659.72-97.85q56.28-13.8 115.08-29a65.74 65.74 0 0 1 6.82-4.58z"/><path d="m1628.77 3026.34a389.31 389.31 0 0 1 19 44.52c232.1-136.13 428.59-264.75 542.79-352.91-.21-.29-.42-.59-.62-.89-57.5 36.24-123.13 75.85-193.38 116.41-148.92 85.95-283.75 156.1-367.79 192.87z"/><path d="m1567.92 2936.62a388.3 388.3 0 0 1 38.79 50.91c73.89-54.4 201.94-136 350.66-221.87 70.77-40.86 138.36-78.14 198.83-110q-3.15-7.47-6-15.12c-133.54 54.55-345.54 161.46-582.28 296.08z"/><path d="m1376.13 3048.65q-15.6 9.36-30.94 18.65c-325.71 197.33-555.91 366.15-537.34 398.31s279.08-82.43 612.09-265.35q15.61-8.58 31.44-17.35a399.86 399.86 0 0 1 -41.53-59.14 395.85 395.85 0 0 1 -33.72-75.12z"/><path d="m2250.74 2784.23a344.69 344.69 0 0 1 -58.88-64.35c-123.62 93.83-319.22 269.79-530.22 480.74-5.71 25.42-18 45.2-37 56.16a68.44 68.44 0 0 1 -27.25 8.66q-37.23 37.95-72.61 74.85c-263.64 275-442.39 497.74-416.12 524s248.28-151.9 522.64-414.82c45.54-43.64 92.52-89.61 140.28-137.38 209.56-209.51 384.65-403.93 479.16-527.86z"/><path d="m1864.26 3388.28c-33.45 57.94-65.41 114.69-95.52 169.49-183.46 333.81-298.45 595.19-266.28 613.76s200.43-210.88 397.35-535.74c32.73-54 66.25-110.64 100.07-169.21 148.12-256.58 266.92-489.65 326.12-633.82a343.55 343.55 0 0 1 -73.49-47c-95.21 122.76-238.84 343.73-388.25 602.52z"/><path d="m2411.06 2862.17-1.36-2.42a340.29 340.29 0 0 1 -81.54-26c-60.22 143.25-141.75 393.83-219.08 682.43-17.33 64.7-33.53 127.86-48.45 188.65-90.77 369.82-134.17 651.94-98.3 661.55s139-255.57 245.15-620.33c17.64-60.63 35.36-124 52.86-189.34 76.34-284.89 130.66-539.71 150.72-694.54z"/><path d="m2413 2865.51c-20.7 154.61-34.3 415.29-34.3 710.84 0 66.89.69 132 2 194.48 8 380.86 39.14 664.74 76.28 664.74s68.16-283 76.25-662.88c1.34-63.06 2.05-128.78 2.05-196.34 0-233.31-8.47-444.91-22.23-599.74q-13.72-10.44-27.07-22.5c-30.78-27.84-55.48-58.42-72.98-88.6z"/><path d="m2660.34 3039c-41-2-91-21.65-138.89-56.16 26.87 152.79 73.22 358.05 133.19 581.86 17.33 64.67 34.87 127.43 52.33 187.5 106.31 365.71 209.81 631.79 245.68 622.17s-7.38-290.8-97.85-659.72c-15-61.35-31.39-125.13-48.9-190.48-49-182.85-99.68-350.45-145.56-485.17z"/><path d="m2731.2 3014.86c-12.62 13.95-30.56 21.7-51.87 23.77 62.65 127.19 144.85 280.56 238.86 443.4 33.49 58 66.68 114.1 99.11 167.62 197.33 325.71 366.15 555.91 398.31 537.34s-82.44-279.07-265.35-612.09c-30.38-55.31-62.65-112.63-96.45-171.17-116.88-202.45-230.23-381.76-319.64-509 20.83 48.44 21.51 93.08-2.97 120.13z"/><path d="m3309.67 3275c-12.89-7.44-22.69-19-29.44-33.55q-9-9.07-18.13-18.18c-209.53-209.53-403.95-384.62-527.87-479.13a344.65 344.65 0 0 1 -62.61 57.65 358.57 358.57 0 0 1 48 64.11c100 122.3 253.41 289.73 431.78 468.1 47.29 47.29 93.81 92.82 138.92 136.07 275 263.64 497.73 442.39 524 416.12s-151.89-248.27-414.81-522.64q-40-41.73-82.47-84.92a66.68 66.68 0 0 1 -7.37-3.63z"/><path d="m3330.64 3001.08a391.16 391.16 0 0 1 29.09-38.68c-233.92-132.91-443.53-238.76-577-293.59-.15.33-.3.66-.46 1 60.12 31.67 127.22 68.69 197.45 109.24 148.9 85.95 277.07 167.64 350.92 222.03z"/><path d="m3476.29 3208.72q15.83 8.79 31.47 17.39c333.82 183.45 595.2 298.44 613.77 266.27s-210.88-200.38-535.75-397.38q-15.29-9.27-30.84-18.61a400.75 400.75 0 0 1 -30.46 65.53 395.56 395.56 0 0 1 -48.19 66.8z"/><path d="m3283.38 3098.64a386.36 386.36 0 0 1 24.69-59c-84.06-36.8-218.76-106.89-367.48-192.75-70.8-40.88-136.91-80.79-194.72-117.25q-4.92 6.46-10.12 12.7c113.99 88.39 312.65 218.54 547.63 356.3z"/><path d="m2810.06 2583.5a340.31 340.31 0 0 1 -26.31 83.18c143.07 60.14 393.23 141.55 681.39 218.8 24.87-7.77 48.15-7 67.12 3.94a68.09 68.09 0 0 1 21.12 19.26q51.64 13.32 101.44 25.53c369.82 90.77 652 134.17 661.56 98.3s-255.57-139-620.33-245.15c-60.63-17.64-124-35.36-189.35-52.86-286.17-76.68-542.05-131.1-696.64-151z"/><path d="m4385.57 2537.88c0-37.09-283-68.15-662.88-76.25-63.06-1.34-128.79-2.05-196.34-2.05-296.3 0-557.58 13.67-712 34.46.77 9.36 1.18 18.82 1.18 28.38a344.93 344.93 0 0 1 -5 58.77c154 21.08 417.11 35 715.9 35 66.89 0 132-.69 194.48-2 380.77-8.06 664.66-39.19 664.66-76.31z"/><path d="m2795.38 2406.49a340.83 340.83 0 0 1 18.72 85.21c154.16-19.47 412-74.16 700.6-151.5 64.67-17.33 127.43-34.87 187.5-52.33 365.72-106.31 631.79-209.8 622.18-245.68s-290.81 7.38-659.73 97.85c-61.35 15-125.12 31.39-190.48 48.9-286.17 76.68-534.96 157.49-678.79 217.55z"/><path d="m2791 2395q1.84 4.62 3.58 9.29c143.87-58.71 378.7-178.24 637.43-327.62 58-33.49 114.09-66.68 167.61-99.11 325.71-197.33 555.91-366.15 537.34-398.31s-279.07 82.44-612.08 265.35c-55.32 30.39-112.63 62.65-171.17 96.45-195.95 113.13-370.22 223-496.59 311q-1.59 6.81-3.41 13.67c-13.85 51.69-36.39 96.54-62.71 129.28z"/><path d="m2850.47 2073.44c18 41.12 22.25 100.78 9.58 165 117-99 266.16-237.24 423.9-395 47.29-47.29 92.83-93.81 136.08-138.92 263.63-275 442.39-497.73 416.12-524s-248.28 151.89-522.64 414.82c-45.51 43.66-92.51 89.66-140.29 137.4-122.4 122.41-233.05 239.65-322.75 340.7z"/><path d="m2795.88 2019.71c16.95 4.54 31.23 15.66 42.45 31.76 73.59-111.83 157-247.21 242.25-394.9 33.45-58 65.41-114.7 95.52-169.49 183.46-333.82 298.45-595.2 266.28-613.77s-200.38 210.88-397.38 535.75c-32.73 54-66.25 110.63-100.07 169.21-112.61 195-208.26 376.5-273.68 515.65 36.65-54.84 83.49-85.23 124.63-74.21z"/><path d="m2623.89 2199.85q-2.61 6.22-5.08 12.24l1.68.78c.74-3 1.5-6 2.32-9.09.35-1.32.72-2.62 1.08-3.93z"/><path d="m2705.51 1421.07c0 14.89-5.08 29.13-14.34 42.28q-3.35 12.35-6.68 24.79c-76.68 286.17-131.09 542.05-151 696.64a340.45 340.45 0 0 1 83.18 26.31q8.37-19.92 17.27-42.54 2.81-7.64 5.84-15c57.08-147.87 128.14-371.76 196-624.89 17.34-64.71 33.54-127.87 48.46-188.65 90.77-369.82 134.17-651.95 98.3-661.56s-139 255.57-245.15 620.33q-16.17 55.61-32.38 114.11a65.42 65.42 0 0 1 .5 8.18z"/><path d="m2814.31 2494c-.06-.78-.14-1.56-.21-2.34a340.83 340.83 0 0 0 -18.72-85.21c-.26-.74-.51-1.48-.78-2.22q-1.72-4.68-3.58-9.29c-34.05 42.35-74.39 64.39-110.36 54.75-62.14-16.65-88.31-121.63-60.17-236.86l-1.68-.78-2.13-1a340.45 340.45 0 0 0 -83.18-26.31c-.77-.14-1.55-.26-2.32-.39q-8-1.38-16.07-2.4c-6.45 164.67-19.68 277.59-35 277.59s-28.61-113.64-35-279.15l-1.08.1c-.79.06-1.56.14-2.35.21a340.75 340.75 0 0 0 -85.2 18.72l-2.22.78a341.87 341.87 0 0 0 -77.38 40.28l-1.93 1.34q-14 9.85-26.89 21c29.69 14.68 49.44 35.75 54.08 61.54 10.74 59.78-63.42 124.06-169.56 150.89a345.48 345.48 0 0 0 -3.24 47.12c0 9.56.41 19 1.18 28.38.06.79.13 1.56.2 2.35a341.63 341.63 0 0 0 18.72 85.2c.27.74.52 1.48.79 2.22q2.81 7.65 6 15.12c145.85-76.76 250.29-121.77 257.93-108.54s-84.11 81.59-224.23 169.91c.2.3.41.6.62.89.44.65.88 1.29 1.34 1.93a344.69 344.69 0 0 0 58.88 64.35l1.8 1.52a343.55 343.55 0 0 0 73.49 47l2.13 1a340.29 340.29 0 0 0 81.54 26c-31.55-57.21-37-112.25-8.56-143.63 44.3-48.95 154.1-21.75 245.24 60.75q13.41 12.14 25.24 24.88a344.65 344.65 0 0 0 62.61-57.65l1.52-1.8q5.2-6.23 10.12-12.7c-139.37-87.91-230.53-155.83-222.89-169.06s112.74 32.05 259.31 109.26c.16-.33.31-.66.46-1 .34-.71.67-1.42 1-2.13a340.31 340.31 0 0 0 26.31-83.18c.14-.77.26-1.54.39-2.31a344.93 344.93 0 0 0 5-58.77c.01-9.5-.4-18.96-1.17-28.36z"/><path d="m2409.8 1534a391.39 391.39 0 0 0 48 5.85c-10.18 91.16-16.84 243-16.84 414.91 0 81.12 1.48 157.76 4.12 225.67 6.42 165.51 19.69 279.15 35 279.15s28.51-112.92 35-277.59c2.68-68.29 4.18-145.49 4.18-227.23 0-171.73-6.65-323.43-16.81-414.62a386.84 386.84 0 0 0 63.55-8.14c57.57-12.44 103.22-37.42 125.21-68.65 9.26-13.15 14.34-27.39 14.34-42.28a65.42 65.42 0 0 0 -.53-8.17c-5.9-46.93-62.23-86.43-140.14-103a395.61 395.61 0 0 0 -81.92-8.36 400.33 400.33 0 0 0 -72 6.39c-71.56 13.13-126.69 45.28-144.49 85.22a68.07 68.07 0 0 0 -6.13 27.92c0 21.91 11 42.44 30.15 60.1 26.51 24.46 68.77 43.39 119.31 52.83z"/><path d="m2104.2 2481.43q14.52-2.61 28.39-6.13c106.14-26.83 180.3-91.11 169.56-150.89-4.64-25.79-24.39-46.86-54.08-61.54s-69.39-23-113.87-23.17q-5.1 0-10.27.09a406 406 0 0 0 -62 6.34c-39.49 7.1-75.53 19.37-105.76 34.94q-12.18 6.27-23.05 13.22c-48.37 30.89-76 70.78-69.13 108.86a66 66 0 0 0 2.85 10.6 76 76 0 0 0 17.68 27.43c38.78 39.55 125.13 57.24 219.68 40.25z"/><path d="m2646.38 2776.87c-91.14-82.5-200.94-109.7-245.24-60.75-28.4 31.38-23 86.42 8.56 143.63l1.36 2.42 1.91 3.34c17.53 30.18 42.23 60.76 73 88.6q13.3 12.06 27.07 22.5 4.2 3.19 8.42 6.24c47.91 34.51 97.85 54.13 138.89 56.16a129.46 129.46 0 0 0 19-.38c21.31-2.07 39.25-9.82 51.87-23.77 24.48-27.05 23.83-71.69 3-120.14a272.4 272.4 0 0 0 -14.58-28.86 358.57 358.57 0 0 0 -48-64.11q-11.84-12.75-25.26-24.88z"/><path d="m2622.81 2203.78c-.82 3-1.58 6.07-2.32 9.09-28.14 115.23-2 220.21 60.17 236.86 36 9.64 76.31-12.4 110.36-54.75 26.3-32.72 48.84-77.57 62.71-129.33q1.83-6.86 3.41-13.67c1.05-4.53 2-9 2.91-13.53 12.67-64.23 8.38-123.89-9.58-165a128.17 128.17 0 0 0 -12.14-22c-11.22-16.1-25.5-27.22-42.45-31.76-41.14-11-88 19.37-124.6 74.21a345.15 345.15 0 0 0 -31.49 59.64q-3 7.35-5.84 15-5.55 15.13-10.06 31.3c-.36 1.32-.73 2.62-1.08 3.94z"/><path d="m1647.73 3070.86a389.31 389.31 0 0 0 -19-44.52c84-36.77 218.87-106.92 367.75-192.87 70.25-40.56 135.88-80.17 193.38-116.41 140.12-88.32 231.9-156.63 224.23-169.91s-112.08 31.78-257.93 108.54c-60.47 31.83-128.06 69.11-198.83 110-148.72 85.86-276.77 167.47-350.66 221.87a388.3 388.3 0 0 0 -38.79-50.91c-39.56-43.63-84-70.67-122.06-74.11-16-1.44-30.89 1.28-43.78 8.72a65.74 65.74 0 0 0 -6.82 4.55c-37.69 28.57-43.73 97.11-19.13 172.87a395.85 395.85 0 0 0 33.72 75.12 399.86 399.86 0 0 0 41.53 59.14c47.14 55.41 102.55 87.08 146 82.53a68.44 68.44 0 0 0 27.25-8.66c19-11 31.26-30.74 37-56.16 7.96-35.25 3.24-81.3-13.86-129.79z"/><path d="m3359.73 2962.4a391.16 391.16 0 0 0 -29.09 38.68c-73.85-54.39-202-136.08-350.9-222-70.23-40.55-137.33-77.57-197.45-109.24-146.57-77.21-251.64-122.54-259.31-109.26s83.52 81.15 222.89 169.06c57.81 36.46 123.92 76.37 194.72 117.25 148.72 85.86 283.42 156 367.48 192.75a386.36 386.36 0 0 0 -24.69 59c-18 56.08-19.2 108.1-3.15 142.77 6.75 14.58 16.55 26.11 29.44 33.55a66.68 66.68 0 0 0 7.34 3.63c43.6 18.35 106-10.68 159.28-69.87a395.56 395.56 0 0 0 48.19-66.76 400.75 400.75 0 0 0 30.46-65.53c24.41-68.54 24.13-132.36-1.56-167.75a68.09 68.09 0 0 0 -21.12-19.26c-19-11-42.25-11.71-67.12-3.94-34.45 10.76-71.97 37.88-105.41 76.92z"/></g><path d="m2543 564.43c37.14 0 68.25 283.88 76.28 664.74a1253.46 1253.46 0 0 1 130.87 16.41c36.69-127.17 58.65-288.83 58.65-464.8 0-409.67-119-741.77-265.8-741.77s-265.81 332.1-265.81 741.77c0 173.71 21.4 333.46 57.24 459.88a1257.27 1257.27 0 0 1 132.32-13.35c8.13-379.92 39.25-662.88 76.25-662.88z" fill="#be9cc1"/><path d="m1584.39 813c32.16-18.57 201 211.63 398.31 537.34a1242 1242 0 0 1 121.64-51.12c-31.82-128.46-93.62-279.4-181.58-431.75-204.84-354.78-473.95-582.88-601.08-509.47s-64.14 420.51 140.69 775.29c86.89 150.49 185.34 278.18 279.61 369.74a1253.91 1253.91 0 0 1 107.76-77.92c-182.91-333.03-297.47-593.55-265.35-612.11z" fill="#be9cc1"/><path d="m878.47 1507.62c18.57-32.17 280 82.82 613.77 266.27a1256.49 1256.49 0 0 1 79.84-105c-91.8-95.4-220.88-195.3-373.34-283.33-354.79-204.83-701.9-267.82-775.3-140.69s154.71 396.28 509.5 601.13c150.38 86.83 299.37 148.16 426.74 180.34a1243.9 1243.9 0 0 1 54.54-121.34c-324.87-196.95-554.29-365.27-535.75-397.38z" fill="#be9cc1"/><path d="m614.43 2462.12c0-37.14 283.89-68.25 664.74-76.28a1250.79 1250.79 0 0 1 16.42-130.84c-127.18-36.69-288.84-58.65-464.81-58.65-409.67 0-741.77 119-741.77 265.8s332.1 265.81 741.77 265.81c173.71 0 333.47-21.4 459.88-57.24a1257.27 1257.27 0 0 1 -13.35-132.32c-379.92-8.13-662.88-39.19-662.88-76.28z" fill="#be9cc1"/><path d="m863 3420.77c-18.57-32.16 211.63-201 537.34-398.31a1244.49 1244.49 0 0 1 -51.13-121.64c-128.46 31.82-279.39 93.62-431.75 181.58-354.76 204.84-582.87 473.95-509.46 601.08s420.51 64.14 775.29-140.69c150.49-86.89 278.18-185.34 369.74-279.61a1256.07 1256.07 0 0 1 -77.92-107.76c-333.02 182.91-593.55 297.46-612.11 265.35z" fill="#be9cc1"/><path d="m1557.62 4126.69c-32.17-18.58 82.82-279.95 266.28-613.77a1255 1255 0 0 1 -105-79.84c-95.4 91.8-195.29 220.87-283.32 373.34-204.84 354.79-267.83 701.9-140.7 775.3s396.27-154.72 601.12-509.5c86.82-150.38 148.15-299.37 180.33-426.74a1242.66 1242.66 0 0 1 -121.33-54.54c-196.95 324.87-365.27 554.29-397.38 535.75z" fill="#be9cc1"/><path d="m2512.13 4390.73c-37.15 0-68.25-283.89-76.29-664.75a1248.12 1248.12 0 0 1 -130.84-16.41c-36.69 127.18-58.64 288.84-58.64 464.81 0 409.67 119 741.77 265.8 741.77s265.8-332.1 265.8-741.77c0-173.71-21.4-333.47-57.24-459.88a1257.27 1257.27 0 0 1 -132.32 13.35c-8.12 379.92-39.18 662.88-76.27 662.88z" fill="#be9cc1"/><path d="m3470.77 4142.14c-32.16 18.57-201-211.63-398.31-537.34a1243.46 1243.46 0 0 1 -121.64 51.13c31.82 128.46 93.63 279.39 181.59 431.75 204.83 354.78 473.94 582.89 601.07 509.49s64.14-420.51-140.69-775.29c-86.88-150.49-185.33-278.18-279.61-369.74a1256.07 1256.07 0 0 1 -107.76 77.92c182.92 333.01 297.47 593.54 265.35 612.08z" fill="#be9cc1"/><path d="m4176.69 3447.54c-18.57 32.16-279.95-82.82-613.76-266.28a1257.27 1257.27 0 0 1 -79.85 105c91.81 95.4 220.88 195.29 373.35 283.32 354.78 204.84 701.89 267.83 775.29 140.7s-154.72-396.28-509.49-601.11c-150.38-86.82-299.38-148.15-426.75-180.33a1245 1245 0 0 1 -54.48 121.35c324.81 196.92 554.23 365.23 535.69 397.35z" fill="#be9cc1"/><path d="m4440.73 2493c0 37.15-283.88 68.25-664.74 76.28a1253.65 1253.65 0 0 1 -16.41 130.88c127.17 36.69 288.83 58.64 464.8 58.64 409.67 0 741.77-119 741.77-265.8s-332.1-265.8-741.77-265.8c-173.71 0-333.47 21.4-459.88 57.24a1257.27 1257.27 0 0 1 13.35 132.32c379.92 8.12 662.88 39.18 662.88 76.24z" fill="#be9cc1"/><path d="m4192.15 1534.39c18.57 32.16-211.63 201-537.34 398.31a1241 1241 0 0 1 51.12 121.64c128.46-31.82 279.4-93.63 431.75-181.59 354.79-204.83 582.89-473.94 509.49-601.07s-420.51-64.14-775.29 140.69c-150.49 86.88-278.18 185.33-369.74 279.6a1257.79 1257.79 0 0 1 77.92 107.77c333.01-182.92 593.54-297.47 612.09-265.35z" fill="#be9cc1"/><path d="m3497.54 828.47c32.17 18.57-82.82 280-266.28 613.76a1257.27 1257.27 0 0 1 105 79.85c95.4-91.81 195.3-220.88 283.33-373.35 204.8-354.73 267.79-701.89 140.66-775.29s-396.25 154.71-601.08 509.49c-86.82 150.38-148.15 299.38-180.33 426.74a1248.69 1248.69 0 0 1 121.36 54.54c196.91-324.86 365.23-554.28 397.34-535.74z" fill="#be9cc1"/><g fill="#d2c4d6"><path d="m3610.1 3031.58q15.55 9.35 30.85 18.61a1245 1245 0 0 0 54.53-121.35q7.58-19.58 14.51-39.47-49.74-12.21-101.44-25.53c25.69 35.39 25.96 99.21 1.55 167.74z"/><path d="m2466.1 1263.09q.32-18 .69-35.78a1257.27 1257.27 0 0 0 -132.32 13.35q-20.83 3.22-41.44 7.13 14.28 49.13 28.58 100.51c17.8-39.94 72.93-72.09 144.49-85.21z"/><path d="m2330.12 2197c.64-.46 1.29-.9 1.93-1.34-95.24-123.38-237.71-342.81-385.86-599.41-33.8-58.54-66.07-115.86-96.45-171.17a1253.91 1253.91 0 0 0 -107.74 77.92q-16.37 13.2-32.27 27c45.11 43.25 91.63 88.78 138.92 136.07 211.27 211.26 387.53 407.18 481.47 530.93z"/><path d="m2869.27 2446.85c.07.78.14 1.56.2 2.35 154.47-20.8 415.74-34.47 712-34.47 67.56 0 133.28.71 196.34 2.06a1257.27 1257.27 0 0 0 -13.35-132.32q-3.23-20.83-7.13-41.44c-60.07 17.46-122.83 35-187.5 52.33-288.6 77.34-546.41 132.02-700.56 151.49z"/><path d="m1702.89 3026c17.1 48.48 21.82 94.54 13.91 129.75 211-210.95 406.6-386.9 530.22-480.73l-1.34-1.93c-114.2 88.17-310.68 216.79-542.79 352.91z"/><path d="m2915.21 2193.61c-.88 4.49-1.86 9-2.91 13.53 126.38-88 300.65-197.82 496.59-310.95 58.54-33.8 115.86-66.07 171.17-96.45a1257.79 1257.79 0 0 0 -77.92-107.74q-13.2-16.35-26.95-32.26c-43.25 45.11-88.78 91.63-136.07 138.92-157.75 157.71-306.92 295.93-423.91 394.95z"/><path d="m2695 2108.71a344.72 344.72 0 0 1 31.49-59.63c65.42-139.15 161.06-320.61 273.67-515.66 33.82-58.57 67.34-115.21 100.08-169.21a1248.69 1248.69 0 0 0 -121.36-54.54q-19.58-7.56-39.47-14.5c-14.92 60.79-31.12 123.95-48.45 188.65-67.87 253.18-138.96 477.03-195.96 624.89z"/><path d="m1506.54 3138.07q-15.82 8.76-31.44 17.35a1256.07 1256.07 0 0 0 77.9 107.76q13.21 16.37 27 32.27 35.34-36.85 72.62-74.86c-43.53 4.55-98.93-27.12-146.08-82.52z"/><path d="m1988.27 2249.45q10.85-6.93 23-13.23c-124.06-61.62-271.62-141-427.89-231.18-58.58-33.82-115.21-67.34-169.21-100.08a1243.9 1243.9 0 0 0 -54.54 121.36q-7.58 19.58-14.5 39.47c60.78 14.92 123.94 31.11 188.65 48.45 169.22 45.34 325.39 92.12 454.49 135.21z"/><path d="m1623.08 2891.78c236.74-134.59 448.74-241.54 582.32-296.05-.27-.74-.52-1.48-.78-2.22-143.83 60.06-392.63 140.87-678.79 217.55l-24.81 6.61c38.04 3.43 82.5 30.47 122.06 74.11z"/><path d="m2383.32 2788.91-2.13-1c-59.23 144.17-178 377.25-326.15 633.82-33.82 58.58-67.34 115.21-100.07 169.21a1242.66 1242.66 0 0 0 121.35 54.54q19.57 7.58 39.47 14.5c14.92-60.79 31.12-123.94 48.46-188.65 77.33-288.59 158.86-539.18 219.07-682.42z"/><path d="m2185.9 2508.3c-.07-.78-.15-1.56-.21-2.34-154.46 20.79-415.74 34.46-712 34.46-67.55 0-133.28-.71-196.34-2.05a1257.27 1257.27 0 0 0 13.35 132.32q3.22 20.83 7.14 41.44c60.07-17.46 122.83-35 187.5-52.33 288.59-77.34 546.4-132.03 700.56-151.5z"/><path d="m2576.61 2938c-2.81-2-5.62-4.11-8.41-6.23 13.75 154.83 22.23 366.42 22.23 599.74 0 67.55-.72 133.28-2.06 196.34a1257.27 1257.27 0 0 0 132.32-13.35q20.83-3.23 41.44-7.14c-17.46-60.07-35-122.83-52.33-187.5-59.97-223.8-106.31-429.07-133.19-581.86z"/><path d="m2679.05 2155q4.5-16.14 10.07-31.31-8.89 22.61-17.28 42.55l2.13 1c1.65-4 3.34-8.09 5.08-12.24z"/><path d="m2774.76 2821a274.06 274.06 0 0 1 14.57 28.85c89.41 127.26 202.76 306.57 319.64 509 33.8 58.54 66.07 115.85 96.45 171.17a1256.07 1256.07 0 0 0 107.76-77.92q16.37-13.21 32.27-26.95c-45.11-43.25-91.63-88.79-138.92-136.08-178.37-178.33-331.78-345.75-431.77-468.07z"/><path d="m3338.54 3053.8c-235-137.77-433.64-267.91-547.63-356.34-.5.6-1 1.2-1.52 1.79 123.93 94.52 318.34 269.61 527.87 479.13q9.12 9.12 18.13 18.18c-16.05-34.66-14.86-86.69 3.15-142.76z"/><path d="m3414.89 2917.56c33.44-39 71-66.17 105.41-76.92-288.16-77.25-538.32-158.66-681.39-218.8l-1 2.13c133.45 54.82 343.09 160.67 576.98 293.59z"/><path d="m2621.12 1487.16c-1.81 272.35-15.19 509.44-34.78 652.38l2.32.39c19.9-154.58 74.32-410.46 151-696.64q3.33-12.43 6.68-24.79c-22 31.23-67.65 56.22-125.22 68.66z"/><path d="m2465 1489.15c-50.53-9.43-92.78-28.37-119.32-52.82 77.19 288.21 131.77 545.59 151.22 699.56l2.34-.2c-19.24-142.98-32.43-377.46-34.24-646.54z"/><path d="m2620 1265.05c77.91 16.57 134.24 56.08 140.15 103q16.16-58.43 32.37-114.11-21-4.54-42.33-8.37a1253.46 1253.46 0 0 0 -130.87-16.41q.38 17.84.68 35.89z"/><path d="m2081.81 1518c149.37 258.73 268.91 493.56 327.62 637.43l2.22-.79c-60.06-143.83-140.87-392.62-217.55-678.79-17.51-65.35-33.86-129.13-48.9-190.48q-20.6 6.6-40.86 13.89a1242 1242 0 0 0 -121.64 51.12c32.43 53.49 65.62 109.62 99.11 167.62z"/><path d="m1661.73 1869.42c206.92 119.47 389.66 235.24 517.36 325.53 3.45-.08 6.88-.11 10.27-.1-120.62-100-281-247.66-451.46-418.08-47.76-47.76-93.74-94.74-137.38-140.28q-14.49 16-28.44 32.44a1256.49 1256.49 0 0 0 -79.84 105c54.76 30.07 111.54 62.07 169.49 95.49z"/><path d="m1473.65 2383.83c171.78 0 331.78 4.59 466 12.5a76 76 0 0 1 -17.65-27.43c-126.32-26.56-273-61.68-428.7-103.4-65.34-17.5-128.72-35.22-189.35-52.86q-4.53 21-8.36 42.33a1250.79 1250.79 0 0 0 -16.42 130.87c62.49-1.32 127.59-2.01 194.48-2.01z"/><path d="m1431.29 3003.8c-24.6-75.75-18.56-144.29 19.13-172.87q-58.7 15.22-115.07 29 6.59 20.6 13.88 40.86a1244.49 1244.49 0 0 0 51.13 121.64q15.32-9.25 30.93-18.63z"/><path d="m1919.42 3343.43c149.41-258.78 293-479.75 388.28-602.52l-1.79-1.52c-94.52 123.92-269.61 318.34-479.13 527.87-47.78 47.74-94.78 93.74-140.29 137.37q16 14.51 32.44 28.45a1255 1255 0 0 0 105 79.84c30.07-54.79 62.07-111.54 95.49-169.49z"/><path d="m2433.83 3531.51c0-295.55 13.6-556.24 34.3-710.85-.64-1.11-1.28-2.22-1.9-3.33-20.12 154.8-74.39 409.65-150.72 694.53-17.51 65.34-35.23 128.72-52.87 189.35q21 4.53 42.33 8.36a1248.12 1248.12 0 0 0 130.87 16.43c-1.31-62.5-2.01-127.6-2.01-194.49z"/><path d="m2973.36 3437.19c-94-162.85-176.21-316.22-238.86-443.41a131 131 0 0 1 -19 .39c45.88 134.7 96.57 302.3 145.56 485.16 17.51 65.36 33.86 129.13 48.91 190.48q20.58-6.6 40.85-13.88a1243.46 1243.46 0 0 0 121.64-51.13c-32.46-53.52-65.62-109.62-99.1-167.61z"/><path d="m3531.45 3163.88c-53.31 59.19-115.68 88.22-159.28 69.87q42.42 43.11 82.47 84.91 14.49-16 28.44-32.43a1257.27 1257.27 0 0 0 79.85-105q-15.64-8.56-31.48-17.35z"/><path d="m3776 2569.31c-62.49 1.32-127.59 2-194.48 2-298.79 0-562-13.9-715.89-35-.14.77-.26 1.55-.4 2.32 154.59 19.9 410.47 74.31 696.65 151 65.33 17.51 128.71 35.23 189.34 52.87q4.54-21 8.37-42.33a1253.65 1253.65 0 0 0 16.41-130.86z"/><path d="m3487.19 2031.8c-258.73 149.38-493.56 268.91-637.43 327.63.27.73.52 1.48.79 2.22 143.83-60.06 392.62-140.88 678.79-217.55 65.35-17.52 129.13-33.86 190.48-48.91q-6.6-20.58-13.89-40.85a1241 1241 0 0 0 -51.12-121.64c-53.52 32.42-109.62 65.62-167.62 99.1z"/><path d="m3135.74 1611.72c-85.27 147.69-168.66 283.07-242.24 394.91a127.77 127.77 0 0 1 12.13 22c89.7-101 200.35-218.3 322.76-340.7 47.76-47.77 94.74-93.74 140.28-137.38q-16-14.49-32.44-28.44a1257.27 1257.27 0 0 0 -105-79.85c-30.08 54.74-62.04 111.52-95.49 169.46z"/></g><path d="m2513 1495a387.54 387.54 0 0 1 -48-5.85c1.85 269.08 15 503.56 34.24 646.54l1.08-.1c-2.64-67.91-4.12-144.56-4.12-225.67-.04-171.92 6.62-323.76 16.8-414.92z" fill="#45284c"/><path d="m2620 1265.05q-.3-18.08-.68-35.88c-8-380.86-39.14-664.74-76.28-664.74s-68.16 283-76.25 662.88q-.37 17.75-.69 35.78a400.33 400.33 0 0 1 72-6.39 395.56 395.56 0 0 1 81.9 8.35z" fill="#45284c"/><path d="m2621.12 1487.16a386.72 386.72 0 0 1 -63.47 8.14c10.16 91.19 16.81 242.89 16.81 414.62 0 81.74-1.51 158.93-4.18 227.23q8.08 1 16.06 2.39c19.59-142.94 32.97-380.03 34.78-652.38z" fill="#45284c"/><path d="m2411.65 2154.61a341.71 341.71 0 0 1 85.21-18.72c-19.45-154-74-411.35-151.22-699.56-19.17-17.66-30.15-38.19-30.15-60.1a68.23 68.23 0 0 1 6.12-27.93q-14.28-51.3-28.61-100.51c-106.28-365.71-209.77-631.79-245.65-622.17s7.38 290.8 97.85 659.72c15 61.35 31.39 125.13 48.9 190.48 76.68 286.18 157.49 534.96 217.55 678.79z" fill="#45284c"/><path d="m2081.81 1518c-33.49-58-66.68-114.1-99.11-167.62-197.33-325.74-366.15-555.94-398.31-537.38s82.44 279.07 265.35 612.09c30.38 55.31 62.65 112.63 96.45 171.17 148.15 256.6 290.62 476 385.86 599.41a341.87 341.87 0 0 1 77.38-40.28c-58.71-143.86-178.25-378.69-327.62-637.39z" fill="#45284c"/><path d="m2189.36 2194.85c44.48.2 84.16 8.49 113.87 23.18q12.9-11.16 26.89-21c-93.94-123.77-270.2-319.69-481.49-531-47.29-47.29-93.81-92.82-138.92-136.07-275-263.64-497.73-442.39-524-416.12s151.89 248.27 414.81 522.64c43.64 45.54 89.62 92.52 137.38 140.28 170.42 170.43 330.84 318.06 451.46 418.09z" fill="#45284c"/><path d="m2179.09 2195c-127.7-90.29-310.44-206.06-517.36-325.53-58-33.45-114.7-65.41-169.49-95.53-333.82-183.45-595.2-298.44-613.77-266.27s210.88 200.43 535.75 397.34c54 32.74 110.63 66.26 169.21 100.08 156.27 90.22 303.83 169.56 427.89 231.18 30.23-15.56 66.27-27.84 105.76-34.93a403.62 403.62 0 0 1 62.01-6.34z" fill="#45284c"/><path d="m1922 2368.9a65 65 0 0 1 -2.86-10.6c-6.84-38.07 20.76-78 69.13-108.85-129.1-43.09-285.24-89.87-454.44-135.21-64.71-17.34-127.87-33.53-188.65-48.45-369.82-90.77-651.95-134.17-661.56-98.3s255.57 139 620.33 245.15c60.63 17.64 124 35.36 189.35 52.86 155.7 41.72 302.38 76.84 428.7 103.4z" fill="#45284c"/><path d="m2187.75 2430.46q-13.85 3.49-28.39 6.13c-94.55 17-180.89-.71-219.69-40.26-134.24-7.91-294.24-12.5-466-12.5-66.89 0-132 .69-194.48 2-380.85 8-664.74 39.14-664.74 76.28s283 68.15 662.88 76.25c63.06 1.34 128.79 2.05 196.34 2.05 296.3 0 557.58-13.67 712-34.46-.77-9.36-1.18-18.82-1.18-28.38a345.37 345.37 0 0 1 3.26-47.11z" fill="#45284c"/><path d="m1457.24 2826.39c12.89-7.44 27.77-10.17 43.78-8.72l24.81-6.61c286.16-76.68 535-157.49 678.79-217.55a340.83 340.83 0 0 1 -18.72-85.21c-154.16 19.47-412 74.16-700.6 151.5-64.67 17.33-127.43 34.87-187.5 52.33-365.72 106.31-631.8 209.8-622.18 245.68s290.81-7.38 659.73-97.85q56.26-13.8 115.07-29a65.65 65.65 0 0 1 6.82-4.57z" fill="#45284c"/><path d="m1683.94 2981.49a389.34 389.34 0 0 1 19 44.53c232.1-136.14 428.59-264.76 542.79-352.91-.21-.3-.41-.6-.62-.89-57.49 36.24-123.13 75.84-193.38 116.4-148.93 85.96-283.73 156.11-367.79 192.87z" fill="#45284c"/><path d="m1623.08 2891.78a386.45 386.45 0 0 1 38.79 50.9c73.89-54.39 201.94-136 350.67-221.87 70.76-40.85 138.35-78.14 198.82-110q-3.15-7.48-6-15.12c-133.54 54.55-345.54 161.5-582.28 296.09z" fill="#45284c"/><path d="m1431.29 3003.8q-15.6 9.38-30.93 18.66c-325.71 197.33-555.91 366.15-537.36 398.31s279.07-82.44 612.08-265.35q15.62-8.58 31.44-17.35a400.87 400.87 0 0 1 -41.52-59.14 395.36 395.36 0 0 1 -33.71-75.13z" fill="#45284c"/><path d="m2305.91 2739.39a345.08 345.08 0 0 1 -58.91-64.39c-123.62 93.83-319.22 269.78-530.22 480.73-5.71 25.43-18 45.21-37 56.16a68.13 68.13 0 0 1 -27.24 8.66q-37.24 37.95-72.62 74.86c-263.63 275-442.39 497.73-416.12 524s248.28-151.89 522.64-414.82c45.56-43.59 92.56-89.59 140.34-137.33 209.52-209.53 384.61-403.95 479.13-527.87z" fill="#45284c"/><path d="m1919.42 3343.43c-33.45 58-65.41 114.7-95.52 169.49-183.46 333.82-298.45 595.19-266.28 613.77s200.43-210.88 397.35-535.75c32.73-54 66.25-110.63 100.07-169.21 148.13-256.57 266.92-489.65 326.15-633.82a343.37 343.37 0 0 1 -73.49-47c-95.24 122.77-238.87 343.74-388.28 602.52z" fill="#45284c"/><path d="m2466.23 2817.33c-.46-.81-.92-1.62-1.36-2.42a340.67 340.67 0 0 1 -81.55-26c-60.21 143.24-141.74 393.83-219.07 682.42-17.34 64.71-33.54 127.86-48.46 188.65-90.77 369.82-134.17 652-98.3 661.56s139-255.57 245.15-620.33c17.64-60.63 35.36-124 52.87-189.35 76.33-284.86 130.6-539.73 150.72-694.53z" fill="#45284c"/><path d="m2468.13 2820.66c-20.7 154.61-34.3 415.3-34.3 710.85 0 66.89.7 132 2 194.47 8 380.86 39.14 664.75 76.29 664.75s68.15-283 76.24-662.88c1.34-63.06 2.06-128.79 2.06-196.34 0-233.32-8.48-444.91-22.23-599.74-9.15-7-18.21-14.47-27.08-22.5-30.75-27.84-55.45-58.43-72.98-88.61z" fill="#45284c"/><path d="m2715.5 2994.17c-41-2-91-21.66-138.89-56.17 26.88 152.79 73.22 358.06 133.19 581.86 17.33 64.67 34.87 127.43 52.33 187.5 106.31 365.72 209.81 631.79 245.68 622.18s-7.38-290.81-97.84-659.73c-15-61.35-31.4-125.12-48.91-190.48-48.99-182.86-99.68-350.46-145.56-485.16z" fill="#45284c"/><path d="m2786.37 2970c-12.62 13.94-30.57 21.7-51.87 23.76 62.65 127.19 144.84 280.56 238.86 443.41 33.48 58 66.68 114.09 99.1 167.61 197.33 325.71 366.15 555.91 398.31 537.34s-82.43-279.07-265.35-612.08c-30.38-55.32-62.65-112.63-96.45-171.17-116.88-202.45-230.23-381.76-319.64-509 20.86 48.46 21.52 93.13-2.96 120.13z" fill="#45284c"/><path d="m3364.83 3230.12c-12.89-7.45-22.69-19-29.44-33.56q-9-9.07-18.13-18.18c-209.53-209.52-403.94-384.61-527.87-479.13a345 345 0 0 1 -62.6 57.66 359.53 359.53 0 0 1 48 64.11c100 122.3 253.4 289.72 431.77 468.09 47.29 47.29 93.81 92.83 138.92 136.08 275 263.63 497.74 442.38 524 416.12s-151.9-248.28-414.82-522.65q-40-41.72-82.47-84.91a66.68 66.68 0 0 1 -7.36-3.63z" fill="#45284c"/><path d="m3385.81 2956.24a388.38 388.38 0 0 1 29.08-38.68c-233.92-132.92-443.53-238.77-577-293.59-.16.33-.31.66-.47 1 60.12 31.67 127.22 68.7 197.45 109.25 148.91 85.93 277.13 167.62 350.94 222.02z" fill="#45284c"/><path d="m3531.45 3163.88q15.84 8.79 31.48 17.38c333.81 183.46 595.19 298.44 613.76 266.28s-210.88-200.43-535.69-397.35q-15.28-9.27-30.85-18.61a400.29 400.29 0 0 1 -30.45 65.53 395.69 395.69 0 0 1 -48.25 66.77z" fill="#45284c"/><path d="m3338.54 3053.8a386.53 386.53 0 0 1 24.69-59c-84.06-36.8-218.76-106.89-367.48-192.76-70.79-40.87-136.9-80.78-194.72-117.25q-4.91 6.48-10.12 12.71c113.99 88.39 312.65 218.5 547.63 356.3z" fill="#45284c"/><path d="m2865.22 2538.66a340.45 340.45 0 0 1 -26.31 83.18c143.07 60.14 393.23 141.55 681.39 218.8 24.88-7.77 48.15-7 67.12 3.93a68.16 68.16 0 0 1 21.13 19.27q51.64 13.3 101.44 25.53c369.82 90.77 651.94 134.17 661.55 98.29s-255.57-139-620.33-245.14c-60.63-17.64-124-35.36-189.34-52.87-286.18-76.65-542.06-131.09-696.65-150.99z" fill="#45284c"/><path d="m4440.73 2493c0-37.09-283-68.15-662.88-76.24-63.06-1.35-128.78-2.06-196.34-2.06-296.3 0-557.57 13.67-712 34.47.77 9.36 1.18 18.82 1.18 28.38a345.75 345.75 0 0 1 -5 58.76c153.94 21.09 417.1 35 715.89 35 66.89 0 132-.7 194.48-2 380.79-8.03 664.67-39.13 664.67-76.31z" fill="#45284c"/><path d="m2850.55 2361.65a341.63 341.63 0 0 1 18.72 85.2c154.15-19.47 412-74.15 700.6-151.49 64.67-17.33 127.43-34.87 187.5-52.33 365.71-106.32 631.79-209.81 622.17-245.69s-290.8 7.39-659.72 97.85c-61.35 15-125.13 31.39-190.48 48.91-286.17 76.67-534.96 157.49-678.79 217.55z" fill="#45284c"/><path d="m2846.18 2350.13c1.23 3.08 2.44 6.18 3.58 9.3 143.87-58.72 378.7-178.25 637.43-327.63 58-33.48 114.1-66.68 167.62-99.1 325.71-197.33 555.91-366.15 537.34-398.31s-279.08 82.43-612.09 265.35c-55.31 30.38-112.63 62.65-171.17 96.45-195.94 113.13-370.21 222.94-496.59 310.95q-1.58 6.81-3.41 13.67c-13.89 51.75-36.41 96.6-62.71 129.32z" fill="#45284c"/><path d="m2905.63 2028.6c18 41.11 22.25 100.78 9.58 165 117-99 266.16-237.24 423.91-395 47.29-47.29 92.82-93.81 136.07-138.92 263.64-275 442.39-497.74 416.12-524s-248.31 151.92-522.64 414.84c-45.54 43.64-92.52 89.61-140.28 137.38-122.39 122.4-233.06 239.65-322.76 340.7z" fill="#45284c"/><path d="m2851 1974.86c16.95 4.55 31.23 15.66 42.46 31.77 73.58-111.84 157-247.22 242.24-394.91 33.45-57.94 65.41-114.69 95.52-169.49 183.46-333.81 298.45-595.19 266.28-613.76s-200.43 210.88-397.34 535.74c-32.74 54-66.26 110.64-100.08 169.21-112.61 195-208.25 376.51-273.67 515.66 36.65-54.84 83.49-85.24 124.59-74.22z" fill="#45284c"/><path d="m2679.05 2155c-1.74 4.14-3.43 8.23-5.08 12.23.56.27 1.13.52 1.68.79q1.11-4.55 2.32-9.09c.35-1.31.72-2.62 1.08-3.93z" fill="#45284c"/><path d="m2760.67 1376.23c0 14.88-5.08 29.13-14.33 42.27q-3.35 12.35-6.68 24.79c-76.68 286.18-131.1 542.06-151 696.64a340.76 340.76 0 0 1 83.18 26.32q8.37-19.92 17.28-42.55 2.79-7.63 5.84-15c57.07-147.86 128.13-371.75 196-624.89 17.33-64.7 33.53-127.86 48.45-188.65 90.77-369.82 134.17-651.94 98.3-661.55s-139 255.57-245.15 620.33q-16.17 55.6-32.37 114.11a65.29 65.29 0 0 1 .48 8.18z" fill="#45284c"/><path d="m2869.47 2449.2c-.06-.79-.13-1.57-.2-2.35a341.63 341.63 0 0 0 -18.72-85.2c-.27-.74-.52-1.49-.79-2.22-1.14-3.12-2.35-6.22-3.58-9.3-34 42.36-74.38 64.39-110.36 54.75-62.13-16.65-88.31-121.63-60.17-236.85-.55-.27-1.12-.52-1.68-.79l-2.13-1a340.76 340.76 0 0 0 -83.18-26.32l-2.32-.39q-8-1.38-16.06-2.39c-6.45 164.66-19.69 277.58-35 277.58s-28.6-113.63-35-279.14l-1.08.1-2.34.2a341.71 341.71 0 0 0 -85.21 18.72l-2.22.79a341.87 341.87 0 0 0 -77.38 40.28c-.64.44-1.29.88-1.93 1.34q-14 9.84-26.89 21c29.69 14.68 49.44 35.75 54.08 61.54 10.74 59.78-63.41 124-169.56 150.89a345.37 345.37 0 0 0 -3.24 47.12c0 9.56.41 19 1.18 28.38.06.78.14 1.56.21 2.34a340.83 340.83 0 0 0 18.72 85.21c.26.74.51 1.48.78 2.22q2.8 7.64 6 15.12c145.86-76.77 250.29-121.78 257.93-108.54s-84.11 81.59-224.23 169.91c.21.29.41.59.62.89l1.28 1.91a345.08 345.08 0 0 0 58.89 64.35l1.79 1.52a343.37 343.37 0 0 0 73.49 47l2.13 1a340.67 340.67 0 0 0 81.55 26c-31.56-57.21-37-112.26-8.57-143.63 44.3-49 154.1-21.75 245.25 60.74q13.39 12.14 25.24 24.89a345 345 0 0 0 62.6-57.66c.51-.59 1-1.19 1.52-1.79q5.21-6.24 10.12-12.71c-139.36-87.91-230.53-155.82-222.89-169.06s112.74 32.06 259.31 109.26c.16-.32.31-.65.47-1l1-2.13a340.45 340.45 0 0 0 26.31-83.18c.14-.77.26-1.55.4-2.32a345.75 345.75 0 0 0 5-58.76c.04-9.52-.37-18.96-1.14-28.32z" fill="#b565a7"/><path d="m2465 1489.15a387.54 387.54 0 0 0 48 5.85c-10.18 91.16-16.84 243-16.84 414.92 0 81.11 1.48 157.76 4.12 225.67 6.43 165.51 19.7 279.14 35 279.14s28.52-112.92 35-277.58c2.67-68.3 4.18-145.49 4.18-227.23 0-171.73-6.65-323.43-16.81-414.62a386.72 386.72 0 0 0 63.47-8.14c57.57-12.44 103.22-37.43 125.22-68.66 9.25-13.14 14.33-27.39 14.33-42.27a65.29 65.29 0 0 0 -.52-8.17c-5.91-46.93-62.24-86.44-140.15-103a395.56 395.56 0 0 0 -81.92-8.35 400.33 400.33 0 0 0 -72 6.39c-71.56 13.12-126.69 45.27-144.49 85.21a68.23 68.23 0 0 0 -6.12 27.93c0 21.91 11 42.44 30.15 60.1 26.56 24.44 68.81 43.38 119.38 52.81z" fill="#eada4f"/><path d="m2159.36 2436.59q14.54-2.61 28.39-6.13c106.15-26.84 180.3-91.11 169.56-150.89-4.64-25.79-24.39-46.86-54.08-61.54s-69.39-23-113.87-23.18c-3.39 0-6.82 0-10.27.1a403.62 403.62 0 0 0 -62 6.34c-39.49 7.09-75.53 19.37-105.76 34.93q-12.18 6.29-23 13.23c-48.37 30.89-76 70.78-69.13 108.85a65 65 0 0 0 2.86 10.6 76 76 0 0 0 17.67 27.43c38.74 39.55 125.08 57.24 219.63 40.26z" fill="#eada4f"/><path d="m2701.55 2732c-91.15-82.49-201-109.69-245.25-60.74-28.4 31.37-23 86.42 8.57 143.63.44.8.9 1.61 1.36 2.42.62 1.11 1.26 2.22 1.9 3.33 17.53 30.18 42.23 60.77 73 88.61 8.87 8 17.93 15.53 27.08 22.5 2.79 2.12 5.6 4.21 8.41 6.23 47.91 34.51 97.85 54.14 138.89 56.17a131 131 0 0 0 19-.39c21.3-2.06 39.25-9.82 51.87-23.76 24.48-27.05 23.82-71.69 3-120.15a274.06 274.06 0 0 0 -14.57-28.85 359.53 359.53 0 0 0 -48-64.11q-11.81-12.7-25.26-24.89z" fill="#eada4f"/><path d="m2678 2158.94q-1.21 4.54-2.32 9.09c-28.14 115.22-2 220.2 60.17 236.85 36 9.64 76.32-12.39 110.36-54.75 26.3-32.72 48.84-77.57 62.71-129.32q1.84-6.86 3.41-13.67c1-4.53 2-9 2.91-13.53 12.67-64.23 8.38-123.9-9.58-165a127.77 127.77 0 0 0 -12.13-22c-11.23-16.11-25.51-27.22-42.46-31.77-41.14-11-88 19.38-124.59 74.22a344.72 344.72 0 0 0 -31.49 59.63q-3 7.35-5.84 15-5.55 15.15-10.07 31.31c-.39 1.31-.76 2.62-1.08 3.94z" fill="#eada4f"/><path d="m1702.89 3026a389.34 389.34 0 0 0 -19-44.53c84-36.76 218.86-106.91 367.74-192.87 70.25-40.56 135.89-80.16 193.38-116.4 140.12-88.32 231.9-156.63 224.23-169.91s-112.07 31.77-257.93 108.54c-60.47 31.82-128.06 69.11-198.82 110-148.73 85.87-276.78 167.48-350.67 221.87a386.45 386.45 0 0 0 -38.79-50.9c-39.56-43.64-84-70.68-122.06-74.11-16-1.45-30.89 1.28-43.78 8.72a65.65 65.65 0 0 0 -6.82 4.54c-37.69 28.58-43.73 97.12-19.13 172.87a395.36 395.36 0 0 0 33.73 75.13 400.87 400.87 0 0 0 41.52 59.14c47.15 55.4 102.55 87.07 146 82.52a68.13 68.13 0 0 0 27.24-8.66c19-10.95 31.26-30.73 37-56.16 7.98-35.23 3.27-81.29-13.84-129.79z" fill="#eada4f"/><path d="m3414.89 2917.56a388.38 388.38 0 0 0 -29.08 38.68c-73.86-54.4-202-136.09-350.91-222-70.23-40.55-137.33-77.58-197.45-109.25-146.57-77.2-251.64-122.54-259.31-109.26s83.53 81.15 222.89 169.06c57.82 36.47 123.93 76.38 194.72 117.25 148.72 85.87 283.42 156 367.48 192.76a386.53 386.53 0 0 0 -24.69 59c-18 56.07-19.2 108.1-3.15 142.76 6.75 14.59 16.55 26.11 29.44 33.56a66.68 66.68 0 0 0 7.34 3.63c43.6 18.35 106-10.68 159.28-69.87a395.69 395.69 0 0 0 48.2-66.77 400.29 400.29 0 0 0 30.45-65.53c24.41-68.53 24.14-132.35-1.55-167.74a68.16 68.16 0 0 0 -21.13-19.27c-19-11-42.24-11.7-67.12-3.93-34.45 10.75-71.97 37.87-105.41 76.92z" fill="#eada4f"/></g></svg>